<?xml version="1.0" encoding="UTF-8" standalone="no"?>
<!DOCTYPE svg PUBLIC "-//W3C//DTD SVG 1.1//EN" "http://www.w3.org/Graphics/SVG/1.1/DTD/svg11.dtd">
<svg width="100%" height="100%" viewBox="0 0 243 899" version="1.1" xmlns="http://www.w3.org/2000/svg" xmlns:xlink="http://www.w3.org/1999/xlink" xml:space="preserve" xmlns:serif="http://www.serif.com/" style="fill-rule:evenodd;clip-rule:evenodd;stroke-linecap:round;stroke-linejoin:round;stroke-miterlimit:1.5;">
    <g transform="matrix(1,0,0,1,-418.681,-61.8144)">
        <path id="blade" d="M565.093,657.186L563.989,658.529C540.748,678.352 518.404,701.147 501.189,726.38L501.01,726.38L493.865,563.325L493.865,563.251C519.422,590.866 548.104,615.983 578.516,636.88C579.239,637.376 579.934,637.85 580.61,638.307L580.607,638.31L580.669,638.239L564.295,658.268C570.365,653.1 576.494,648.134 582.607,643.382L582.61,643.316L582.692,643.316L582.607,643.382L573.127,859.73L540,959.152L540,959.61L506.873,860.188L502.902,769.563L502.967,769.563C504.627,765.312 506.349,761.094 508.109,756.912C522.957,721.623 541.052,688.773 563.819,658.851L563.989,658.529L564.204,658.346C564.499,657.959 564.796,657.572 565.093,657.186ZM589.847,478.133L583.374,625.875L583.326,625.875C554.247,601.935 529.308,572.695 507.336,542.224L507.409,542.231C526.884,519.141 550.673,499.451 578.516,484.098C582.245,482.042 586.023,480.049 589.847,478.133L589.848,478.112L589.889,478.112L589.847,478.133ZM510.319,381.246L499.108,375.587L478.406,375.587C488.386,422.641 489.997,475.043 489.997,475.043L491.614,511.934L491.673,511.934C492.662,510.345 493.674,508.774 494.711,507.222C502.655,495.328 511.652,484.499 521.413,474.467C517.083,466.591 509.251,381.808 510.319,381.246ZM601.497,375.587L580.844,375.587L572.329,379.885L565.556,436.693C571.36,432.42 577.26,428.258 583.218,424.174C587.077,421.527 590.961,418.913 594.858,416.321L594.819,416.321C596.456,403.242 598.628,389.199 601.497,375.587ZM601.497,375.587C601.529,375.435 601.546,375.587 601.546,375.587L601.497,375.587ZM478.872,313.721C478.943,317.206 480.321,337.801 502.902,338.279C529.477,338.842 540,313.222 540,313.222C540,313.222 553.023,287.896 575.275,288.32C601.213,288.815 601.13,313.222 601.13,313.222C601.13,346.961 573.739,374.353 540,374.353C506.427,374.353 479.138,347.229 478.872,313.721C478.865,313.398 478.87,313.222 478.87,313.222C478.87,313.388 478.87,313.553 478.872,313.721Z" style="fill:rgb(123,123,123);stroke:rgb(123,123,123);stroke-width:1.05px;"/>
        <path id="base" d="M559.773,477.638L532.728,501.818L532.508,501.826C536.406,511.565 539.44,513.832 543.402,516.95C548.265,513.122 551.73,510.578 557.111,493.923C557.913,489.916 558.772,484.286 559.64,477.828L559.773,477.638ZM496.576,375.587C496.481,375.291 496.459,375.129 496.459,375.129L502.664,375.587L496.576,375.587C497.061,377.107 499.437,382.164 510.319,387.029C512.127,387.837 514.169,388.639 516.477,389.42C518.033,401.597 522.732,451.419 526.291,469.213C527.278,472.268 528.2,474.848 529.079,477.049L529.061,477.065L529.106,477.117C529.097,477.094 529.088,477.071 529.079,477.049L556.247,453.047L556.238,453.118C559.225,430.892 562.317,398.855 563.523,389.42C579.722,383.941 582.858,377.36 583.424,375.587L646.2,375.587L660.796,358.111L612.458,313.222C612.458,349.507 585.73,379.599 550.904,384.864L550.904,384.631L540,403.306L529.096,384.631L529.096,384.864C494.27,379.599 467.542,349.507 467.542,313.222L419.204,358.111L433.8,375.587L496.576,375.587ZM556.247,453.047L556.238,453.118L556.323,452.98L556.247,453.047ZM583.424,375.587C583.519,375.291 577.336,375.587 577.336,375.587L583.424,375.587ZM601.13,313.216C601.13,312.78 600.977,288.81 575.275,288.32C553.023,287.896 540,313.222 540,313.222C540,313.222 529.477,338.842 502.902,338.279C478.232,337.757 478.87,313.222 478.87,313.222C478.87,279.484 506.261,252.092 540,252.092C573.739,252.092 601.13,279.484 601.13,313.222L601.13,313.216C601.13,313.22 601.13,313.222 601.13,313.222L601.13,313.216ZM575.275,307.355C579.368,307.355 582.692,310.679 582.692,314.772C582.692,318.866 579.368,322.19 575.275,322.19C571.181,322.19 567.857,318.866 567.857,314.772C567.857,310.679 571.181,307.355 575.275,307.355ZM612.312,305.721C611.622,299.028 610.02,292.603 607.631,286.574C607.631,286.574 607.78,286.458 607.906,286.415C615.239,283.923 617.263,282.813 624.587,279.925C640.061,297.997 638.806,293.552 638.806,299.113C638.806,302.947 631.312,312.767 626.657,318.497L626.566,318.538L612.312,305.721ZM467.926,305.721C468.616,299.028 470.218,292.603 472.607,286.574C472.607,286.574 472.458,286.458 472.332,286.415C464.999,283.923 462.975,282.813 455.651,279.925C440.177,297.997 441.432,293.552 441.432,299.113C441.432,302.947 448.926,312.767 453.581,318.497L453.672,318.538L467.926,305.721ZM612.312,305.721C612.319,305.788 612.326,305.853 612.332,305.919L612.312,305.721L612.312,305.721ZM467.926,305.721C467.919,305.788 467.912,305.853 467.906,305.919L467.926,305.721L467.926,305.721ZM474.723,281.755C474.659,281.886 474.597,282.017 474.534,282.148L474.846,281.735C474.846,281.735 474.808,281.747 474.723,281.755ZM605.515,281.755C605.578,281.886 605.641,282.017 605.704,282.148L605.392,281.735C605.392,281.735 605.43,281.747 605.515,281.755ZM486.774,252.587L486.774,252.587C486.774,252.587 475.62,259.84 467.542,278.607C472.389,281.691 474.26,281.796 474.723,281.755L474.728,281.745C475.46,280.231 476.245,278.743 477.081,277.284C478.509,274.79 480.086,272.382 481.799,270.076C483.56,267.706 485.465,265.443 487.5,263.304C488.659,262.085 489.86,260.907 491.1,259.771L491.122,259.751C490.667,259.35 488.321,255.919 486.774,252.587ZM593.463,252.587L593.463,252.587C593.463,252.587 604.617,259.84 612.696,278.607C607.849,281.691 605.978,281.796 605.515,281.755C601.478,273.404 595.886,265.944 589.116,259.751C589.571,259.35 591.918,255.918 593.463,252.587ZM486.774,252.587L491.155,259.721L491.122,259.751C491.16,259.784 491.184,259.797 491.195,259.787L491.155,259.721C495.416,255.828 500.145,252.435 505.247,249.639C505.319,248.631 505.161,249.529 505.161,249.529L507.523,234.758L507.349,234.822C501.293,237.089 492.799,241.043 485.448,247.313C485.186,248.562 485.832,250.556 486.774,252.587ZM589.083,259.721C584.822,255.828 580.092,252.435 574.991,249.639C574.919,248.631 575.077,249.529 575.077,249.529L572.715,234.758L572.889,234.822C578.945,237.089 587.439,241.043 594.79,247.313C595.051,248.562 594.406,250.556 593.463,252.587L589.083,259.721L589.116,259.751C589.078,259.784 589.053,259.797 589.043,259.787L589.083,259.721ZM517.516,244.326C520.362,229.277 522.965,208.541 521.993,185.792C530.175,182.527 531.38,182.232 540,182.232C548.62,182.232 549.825,182.527 558.007,185.792C557.035,208.54 559.638,229.276 562.484,244.326L562.509,244.334L562.509,244.457C562.501,244.413 562.492,244.369 562.484,244.326C555.404,242.014 547.847,240.764 540,240.764C532.153,240.764 524.595,242.014 517.516,244.326L517.511,244.349C517.489,244.466 517.336,244.385 517.445,244.349C517.468,244.341 517.492,244.334 517.516,244.326ZM540,177.303C518.157,177.303 489.662,188.362 489.662,188.362L486.303,184.472L486.303,174.246L489.06,171.551L486.303,168.245C486.303,168.245 486.39,164.363 486.303,157.631C505.362,134.336 507.732,121.51 516.567,80.968C516.567,80.968 518.035,76.855 518.653,76.855C519.271,76.855 523.559,76.816 523.559,76.816C523.559,76.816 512.884,124.44 513.151,138.472C513.419,152.504 517.311,163.232 516.933,170.184C521.55,173.944 521.356,174.067 521.356,174.08C521.356,174.081 521.585,174.05 521.993,173.994C521.785,155.921 519.28,159.911 518.679,143.46C518.076,126.983 528.118,78.081 528.118,78.081L529.824,65.133L540,62.337L550.176,65.133L551.882,78.081L551.889,78.116C552.193,79.599 561.914,127.24 561.321,143.46C560.72,159.911 558.215,155.921 558.007,173.994C558.415,174.05 558.644,174.081 558.644,174.08C558.644,174.067 558.45,173.944 563.067,170.184C562.689,163.232 566.581,152.504 566.849,138.472C567.116,124.44 556.441,76.816 556.441,76.816C556.441,76.816 560.729,76.855 561.347,76.855C561.965,76.855 563.433,80.968 563.433,80.968C572.268,121.51 574.638,134.336 593.697,157.631C593.61,164.363 593.697,168.245 593.697,168.245L590.94,171.551L593.697,174.246L593.697,184.472L590.338,188.362C590.338,188.362 561.9,177.325 540.064,177.303L540,177.303ZM540.022,172.213C542.489,172.052 549.481,172.875 554.159,173.479C546.005,172.308 540,172.073 540,172.073C540,172.073 533.995,172.308 525.841,173.479C530.534,172.873 537.554,172.046 540,172.214L540.022,172.213Z" style="stroke:black;stroke-width:1.05px;"/>
        <g id="dot" transform="matrix(1,0,0,1,-5.90862,0)">
            <circle cx="508.811" cy="314.772" r="7.417" style="fill:rgb(123,123,123);stroke:rgb(123,123,123);stroke-width:1.05px;"/>
        </g>
    </g>
</svg>
